<?xml version="1.0" encoding="UTF-8" standalone="no"?><!DOCTYPE svg PUBLIC "-//W3C//DTD SVG 1.1//EN" "http://www.w3.org/Graphics/SVG/1.1/DTD/svg11.dtd"><svg width="100%" height="100%" viewBox="0 0 512 512" version="1.1" xmlns="http://www.w3.org/2000/svg" xmlns:xlink="http://www.w3.org/1999/xlink" xml:space="preserve" xmlns:serif="http://www.serif.com/" style="fill-rule:evenodd;clip-rule:evenodd;stroke-linejoin:round;stroke-miterlimit:1.41421;"><path d="M252.8,8c-138.7,0 -244.8,105.3 -244.8,244c0,110.9 69.8,205.8 169.5,239.2c12.8,2.3 17.3,-5.6 17.3,-12.1c0,-6.2 -0.3,-40.4 -0.3,-61.4c0,0 -70,15 -84.7,-29.8c0,0 -11.4,-29.1 -27.8,-36.6c0,0 -22.9,-15.7 1.6,-15.4c0,0 24.9,2 38.6,25.8c21.9,38.6 58.6,27.5 72.9,20.9c2.3,-16 8.8,-27.1 16,-33.7c-55.9,-6.2 -112.3,-14.3 -112.3,-110.5c0,-27.5 7.6,-41.3 23.6,-58.9c-2.6,-6.5 -11.1,-33.3 2.6,-67.9c20.9,-6.5 69,27 69,27c20,-5.6 41.5,-8.5 62.8,-8.5c21.3,0 42.8,2.9 62.8,8.5c0,0 48.1,-33.6 69,-27c13.7,34.7 5.2,61.4 2.6,67.9c16,17.7 25.8,31.5 25.8,58.9c0,96.5 -58.9,104.2 -114.8,110.5c9.2,7.9 17,22.9 17,46.4c0,33.7 -0.3,75.4 -0.3,83.6c0,6.5 4.6,14.4 17.3,12.1c100,-33.2 167.8,-128.1 167.8,-239c0,-138.7 -112.5,-244 -251.2,-244Z" style="fill:#7c7c90;fill-rule:nonzero;"/></svg>